<svg width="280" height="72" viewBox="0 0 280 72" fill="none" xmlns="http://www.w3.org/2000/svg" role="img" aria-label="Allura Command">
  <rect width="280" height="72" rx="18" fill="transparent"/>
  <g transform="translate(6 8)">
    <rect width="56" height="56" rx="14" fill="#111827"/>
    <circle cx="28" cy="28" r="17" fill="#F5F1E6"/>
    <circle cx="28" cy="28" r="12" fill="#1D4ED8"/>
    <path d="M28 11a17 17 0 0 1 14.8 8.5L28 28V11Z" fill="#FF5A2E"/>
    <path d="M28 28 42.8 19.5a17 17 0 0 1-2.7 19.6L28 28Z" fill="#C89B3C"/>
    <circle cx="28" cy="28" r="3.9" fill="#F5F1E6"/>
    <path d="M17.5 35.5c3.8-5.4 7.2-7.9 10.5-7.5 3.7.5 7.2-2.4 10.5-7.5" stroke="#F5F1E6" stroke-width="2.8" stroke-linecap="round"/>
  </g>
  <text x="76" y="36" font-family="IBM Plex Sans, Inter, system-ui, sans-serif" font-size="28" font-weight="800" letter-spacing="-0.9" fill="#111827">Allura</text>
  <text x="78" y="54" font-family="IBM Plex Mono, ui-monospace, monospace" font-size="10" font-weight="700" letter-spacing="2.4" fill="#FF5A2E">COMMAND</text>
</svg>
