<svg width="128" height="128" viewBox="0 0 128 128" fill="none" xmlns="http://www.w3.org/2000/svg" role="img" aria-label="Allura mark">
  <rect width="128" height="128" rx="30" fill="#111827"/>
  <circle cx="64" cy="64" r="39" fill="#F5F1E6"/>
  <circle cx="64" cy="64" r="28" fill="#1D4ED8"/>
  <path d="M64 25a39 39 0 0 1 34 20L64 64V25Z" fill="#FF5A2E"/>
  <path d="M64 64 98 45a39 39 0 0 1-6 45L64 64Z" fill="#C89B3C"/>
  <circle cx="64" cy="64" r="8" fill="#F5F1E6"/>
  <circle cx="64" cy="64" r="3.5" fill="#111827"/>
  <path d="M40 81c8-12 16-18 24-17 8 1 16-5 24-17" stroke="#F5F1E6" stroke-width="5" stroke-linecap="round"/>
  <circle cx="40" cy="81" r="5" fill="#FF5A2E" stroke="#111827" stroke-width="2"/>
  <circle cx="88" cy="47" r="5" fill="#C89B3C" stroke="#111827" stroke-width="2"/>
</svg>
